<svg xmlns="http://www.w3.org/2000/svg" viewBox="0 0 64 64">
  <defs>
    <linearGradient id="collectorGradient" x1="0%" y1="0%" x2="100%" y2="100%">
      <stop offset="0%" style="stop-color:#22C55E"/>
      <stop offset="100%" style="stop-color:#16A34A"/>
    </linearGradient>
  </defs>
  <circle cx="32" cy="32" r="32" fill="url(#collectorGradient)"/>
  <path 
    d="M44 24h-4v-4c0-4.4-3.6-8-8-8s-8 3.6-8 8v4h-4c-2.2 0-4 1.8-4 4v20c0 2.2 1.8 4 4 4h24c2.2 0 4-1.8 4-4V28c0-2.2-1.8-4-4-4zm-12-8c2.2 0 4 1.8 4 4v4H28v-4c0-2.2 1.8-4 4-4z"
    fill="#ffffff"
  />
</svg>