<svg width="800" height="600" viewBox="0 0 800 600" fill="none" xmlns="http://www.w3.org/2000/svg">
  <!-- Background Elements -->
  <circle cx="400" cy="300" r="250" fill="#E2E8F0" opacity="0.2"/>
  <path d="M200 450 Q400 350 600 450" stroke="#22C55E" stroke-width="2" opacity="0.1"/>
  
  <!-- Smart Bin -->
  <g transform="translate(350, 200)">
    <!-- Bin Body -->
    <rect x="0" y="0" width="100" height="140" rx="10" fill="#22C55E"/>
    <rect x="10" y="10" width="80" height="120" rx="8" fill="#16A34A"/>
    
    <!-- Digital Display -->
    <rect x="25" y="30" width="50" height="30" rx="4" fill="#1E293B"/>
    <circle cx="50" cy="45" r="8" fill="#22C55E"/>
    
    <!-- Sensor -->
    <circle cx="50" cy="80" r="5" fill="#CBD5E1"/>
    <path d="M45 80 Q50 75 55 80" stroke="#CBD5E1" stroke-width="2"/>
    
    <!-- Lid -->
    <path d="M-10 0 L110 0 L100 -20 L0 -20 Z" fill="#22C55E"/>
  </g>

  <!-- Collection Vehicle -->
  <g transform="translate(200, 350)">
    <!-- Vehicle Body -->
    <rect x="0" y="0" width="180" height="80" rx="10" fill="#22C55E"/>
    <rect x="140" y="20" width="60" height="60" fill="#16A34A"/>
    
    <!-- Wheels -->
    <circle cx="40" cy="90" r="20" fill="#1E293B"/>
    <circle cx="40" cy="90" r="10" fill="#CBD5E1"/>
    <circle cx="160" cy="90" r="20" fill="#1E293B"/>
    <circle cx="160" cy="90" r="10" fill="#CBD5E1"/>
    
    <!-- Windows -->
    <rect x="150" y="30" width="40" height="25" rx="5" fill="#CBD5E1"/>
  </g>

  <!-- Recycling Symbols -->
  <g transform="translate(500, 280)">
    <path d="M0 0 L20 35 L-20 35 Z" fill="#22C55E" transform="rotate(0)"/>
    <path d="M0 0 L20 35 L-20 35 Z" fill="#22C55E" transform="rotate(120)"/>
    <path d="M0 0 L20 35 L-20 35 Z" fill="#22C55E" transform="rotate(240)"/>
  </g>

  <!-- Location Markers -->
  <g transform="translate(600, 250)">
    <path d="M0 0 Q15 -20 30 0 Q15 40 0 0 Z" fill="#22C55E"/>
    <circle cx="15" cy="0" r="5" fill="#ffffff"/>
  </g>
  <g transform="translate(250, 200)">
    <path d="M0 0 Q15 -20 30 0 Q15 40 0 0 Z" fill="#22C55E" opacity="0.5"/>
    <circle cx="15" cy="0" r="5" fill="#ffffff"/>
  </g>

  <!-- Connected Lines -->
  <g stroke="#22C55E" stroke-width="2" stroke-dasharray="4 4" opacity="0.4">
    <path d="M265 200 L350 270"/>
    <path d="M615 250 L450 270"/>
    <path d="M450 340 L380 350"/>
  </g>

  <!-- Small Decorative Elements -->
  <circle cx="200" cy="150" r="5" fill="#22C55E" opacity="0.5"/>
  <circle cx="600" cy="400" r="5" fill="#22C55E" opacity="0.5"/>
  <circle cx="500" cy="200" r="5" fill="#22C55E" opacity="0.5"/>
  
  <!-- Environmental Elements -->
  <g transform="translate(150, 300)">
    <path d="M0 0 Q10 -20 20 0 Q30 -20 40 0" 
          stroke="#22C55E" 
          stroke-width="2" 
          fill="none"/>
    <path d="M10 5 L10 20 M30 5 L30 20" 
          stroke="#22C55E" 
          stroke-width="2"/>
  </g>
  <g transform="translate(650, 350)">
    <path d="M0 0 Q10 -20 20 0 Q30 -20 40 0" 
          stroke="#22C55E" 
          stroke-width="2" 
          fill="none"/>
    <path d="M10 5 L10 20 M30 5 L30 20" 
          stroke="#22C55E" 
          stroke-width="2"/>
  </g>
</svg>